<?xml version="1.0" encoding="UTF-8"?>
<svg width="188px" height="42px" viewBox="0 0 188 42" version="1.1" xmlns="http://www.w3.org/2000/svg" xmlns:xlink="http://www.w3.org/1999/xlink">
    <title>logo-ft</title>
    <g id="logo-ft" stroke="none" stroke-width="1" fill="none" fill-rule="evenodd">
        <path d="M93.2833297,1.58316461 C91.3532998,2.36564352 89.526635,3.56646519 87.8027188,5.18604342 L87.8027188,5.18604342 C86.0794191,6.80541475 84.6610773,8.63416436 83.5478988,10.6722923 L83.5478988,10.6722923 C82.2918998,12.9940739 81.4105222,15.7772326 80.9029441,19.0219753 L80.9029441,19.0219753 L88.9847388,19.6174206 C89.7450786,15.3007522 91.2647305,12.1015266 93.5443112,10.01933 L93.5443112,10.01933 C95.9112282,7.85747853 98.1176519,6.83065601 101.394305,7.00341378 L101.394305,7.00341378 C104.671164,7.17637844 106.50461,8.40285516 108.126189,10.7478091 L108.126189,10.7478091 C109.747356,13.0927631 110.19534,16.5421254 109.469113,21.0954823 L109.469113,21.0954823 C109.467469,21.106034 109.465825,21.1161718 109.464181,21.1265166 L109.464181,21.1265166 L117.567964,21.723824 C117.611735,21.4008601 117.650779,21.074172 117.686125,20.7443806 L117.686125,20.7443806 C118.379678,14.229654 117.177519,9.14395496 114.079443,5.48624884 L114.079443,5.48624884 C110.981367,1.82874961 107.144117,0 101.334505,0 L101.334505,0 C98.1248443,0 95.8522505,0.527997399 93.2833297,1.58316461 L93.2833297,1.58316461 Z M53.2045899,1.58316461 C51.27456,2.36564352 49.4478951,3.56646519 47.7241844,5.18604342 L47.7241844,5.18604342 C46.0006792,6.80541475 44.5821319,8.63416436 43.468748,10.6722923 L43.468748,10.6722923 C42.6060706,12.2676637 41.9199154,14.0808962 41.4102823,16.1121965 L41.4102823,16.1121965 L49.5812628,16.7142625 C50.4359258,13.8355181 51.7307638,11.6037359 53.4653659,10.01933 L53.4653659,10.01933 C55.8322829,7.85747853 58.0387066,6.83065601 61.3157708,7.00341378 L61.3157708,7.00341378 C64.5922185,7.17637844 66.4260757,8.40285516 68.0472433,10.7478091 L68.0472433,10.7478091 C69.3046808,12.5666278 69.8564408,15.049581 69.7019069,18.196669 L69.7019069,18.196669 L77.7604805,18.7902523 C78.0352303,13.2044867 76.7819027,8.76988783 74.0007033,5.48624884 L74.0007033,5.48624884 C70.9024217,1.82874961 67.0651721,0 61.2555601,0 L61.2555601,0 C58.0461045,0 55.7733052,0.527997399 53.2045899,1.58316461 L53.2045899,1.58316461 Z M4.01554164,9.45409136 C3.20362211,10.6967059 2.42252717,12.1389747 2.06229054,13.2388313 L9.96365875,13.7953803 C12.1606296,9.50353939 16.6312216,6.76010463 21.4470491,6.88403505 C23.192748,6.92913828 24.9663945,7.34644657 26.407752,8.33892444 C28.6361639,9.87326171 29.3694894,12.4386475 29.7120533,15.0062211 L29.7286985,15.0372554 L29.7471933,15.0666346 C29.8258987,15.1810478 29.952485,15.2553233 30.0928396,15.2660819 L37.2018433,15.8052088 L37.2347229,15.8064502 L37.2680134,15.8056226 C37.5250905,15.7888641 37.7203128,15.5656238 37.703873,15.3065906 C37.6019843,11.0650786 36.3287469,7.3588603 33.9542265,4.82480382 C31.6411498,2.35674701 28.5441012,0.944891897 25.2732019,0.348205181 C24.0038455,0.11668908 22.7085965,0.00806892577 21.4228004,0.00806892577 C20.7908964,0.00806892577 20.1612529,0.0343446584 19.5383909,0.0850340639 C13.2168853,0.600824626 7.4964591,4.1265314 4.01554164,9.45409136 Z M165.568827,2.19081679 C163.364253,3.09970887 161.609307,4.42301269 160.303167,6.16052138 L160.303167,6.16052138 C158.997848,7.89823695 158.238125,9.76484845 158.025024,11.7607697 L158.025024,11.7607697 C157.693146,14.8617199 158.602471,17.4901207 160.752794,19.6465929 L160.752794,19.6465929 C162.281694,21.179275 165.088786,22.4713376 169.173454,23.5225738 L169.173454,23.5225738 C172.348386,24.342087 177.425606,24.9114635 177.425606,29.5035098 L177.425606,29.5035098 C177.381013,31.2668805 175.92075,34.0736253 171.85622,34.777277 L171.85622,34.777277 C169.275175,35.137689 166.086886,35.1339649 164.000062,33.3325255 L164.000062,33.3325255 C161.805146,31.43819 161.584442,28.5975143 162.447325,25.9749065 L162.447325,25.9749065 C162.445886,25.7282871 162.251691,25.5265639 162.006327,25.5174605 L162.006327,25.5174605 L155.98567,25.0792558 L155.976833,25.0792558 L155.968408,25.0792558 C155.911485,25.0792558 155.563168,25.0159457 155.46905,25.3405648 L155.46905,25.3405648 C155.143748,26.4586283 154.966198,29.3415106 155.137994,30.5561943 L155.137994,30.5561943 C155.529466,33.3217669 156.485234,35.977271 158.53178,37.9442269 L158.53178,37.9442269 C160.914315,40.2341466 164.557165,41.3793134 169.459917,41.3793134 L169.459917,41.3793134 C176.127275,41.3793134 179.69635,39.5460121 182.891627,36.0378914 L182.891627,36.0378914 C184.665068,34.0910045 185.406502,31.5403964 185.495482,28.9583401 L185.495482,28.9583401 C185.58775,26.2815257 184.700002,23.9144339 182.68613,22.003133 L182.68613,22.003133 C179.847185,19.3081118 176.945154,18.2821168 173.187226,17.2550874 L173.187226,17.2550874 C170.376024,16.5669529 164.81753,15.4917168 165.482108,11.4208403 L165.482108,11.4208403 C165.862688,9.08995522 168.459968,7.90630588 170.535695,7.57092822 L170.535695,7.57092822 C173.977774,7.01499993 179.324811,8.22223536 179.037526,12.7135236 L179.037526,12.7135236 L179.04102,12.7447648 L179.047185,12.7751784 C179.084996,12.9349018 179.222474,13.0557288 179.39016,13.0679356 L179.39016,13.0679356 L185.400953,13.5204162 L185.408968,13.5210368 C185.490139,13.5270368 185.822634,13.5485539 185.924149,13.2104866 L185.924149,13.2104866 C186.058133,12.7629716 186.233012,9.11519648 184.334012,6.16052138 L184.334012,6.16052138 C181.972232,2.48564293 176.346746,0.82758213 173.346075,0.82758213 L173.346075,0.82758213 C169.459917,0.82758213 167.773196,1.28233851 165.568827,2.19081679 L165.568827,2.19081679 Z M147.274848,1.65516426 L147.241763,1.65640563 C147.023319,1.67212969 146.844331,1.84199093 146.81885,2.06357604 L146.81885,2.06357604 L144.622495,23.7315383 L152.038685,24.2781563 L154.45225,2.16702381 L154.454305,2.14178255 L154.454921,2.1165413 C154.454921,1.8618529 154.249424,1.65516426 153.99584,1.65516426 L153.99584,1.65516426 L147.274848,1.65516426 Z M124.079555,1.65516426 L124.046469,1.65640563 C123.826998,1.67212969 123.646983,1.84343919 123.62294,2.06626568 L123.62294,2.06626568 L121.444464,22.0240294 L128.831061,22.5685785 L129.649146,14.2232403 L133.330834,22.8998182 L140.750928,23.4466431 L131.775837,1.93468012 L131.761246,1.90364579 C131.682952,1.75178447 131.526157,1.65516426 131.353951,1.65516426 L131.353951,1.65516426 L124.079555,1.65516426 Z M3.34932449e-05,24.025123 C-0.00295655378,25.8929759 0.194115283,27.7649667 0.646003676,29.578406 C0.722243146,29.8846114 0.805675018,30.1887478 0.896915785,30.4906084 C2.00639529,34.1700386 4.16966456,37.3632642 7.46748399,39.3658061 C10.3594464,41.1219354 13.8771479,42 18.0195609,42 C18.1954665,42 18.3709611,41.9981379 18.5464558,41.994 C21.7522124,41.9232418 25.1102426,41.2957276 28.0617992,40.0090443 C30.777445,38.8249812 33.6038538,37.0531278 35.7995916,35.074172 C35.9498101,34.9388624 36.0449553,34.7528633 36.0681765,34.5517608 L37.6800967,20.7818287 L37.6817407,20.7636219 L37.6831791,20.745415 C37.6924265,20.4861749 37.4910392,20.2683139 37.2337567,20.2587968 L21.1073622,19.4579041 L21.0746881,19.4579041 C20.8453532,19.4657662 20.6528023,19.6420412 20.6269096,19.8752124 L19.9407544,25.8395968 L19.938494,25.8594588 L19.9378775,25.8787001 C19.9304796,26.138354 20.1337163,26.3545598 20.3909988,26.3618012 L28.9382448,26.6055241 L28.3953212,31.1396397 L28.2827087,31.2286048 C27.3700955,31.9399116 26.2248595,32.6781149 25.1768237,33.11963 C20.5535471,35.0689997 13.7608364,35.1602406 10.4126702,30.8276412 C8.57716899,28.4531012 7.55954674,24.0526401 8.66306683,18.9315619 L0.573874151,18.6237014 C0.422645018,18.7710284 0.173154566,20.9634829 0.151988352,21.1914818 C0.0636245464,22.1347185 0.00197537956,23.0775415 3.34932449e-05,24.025123 Z M40.5741141,20.9351383 C39.8957677,27.3040034 41.0938165,32.303634 44.168055,35.9336161 L44.168055,35.9336161 C47.2422935,39.564012 51.0939279,41.3793134 56.9573802,41.3793134 L56.9573802,41.3793134 C62.7493194,41.3793134 66.9531761,39.5549086 70.8019336,35.9065128 L70.8019336,35.9065128 C74.4425224,32.4554953 76.6690848,27.7475875 77.4816208,21.7815479 L77.4816208,21.7815479 L69.3281075,21.4707908 C68.5694117,25.8886311 67.0232506,29.1656494 64.6892132,31.3022596 L64.6892132,31.3022596 C62.2896221,33.4988695 60.1210099,34.5461746 56.9512152,34.3787962 L56.9512152,34.3787962 C53.7818316,34.2116246 51.9687296,32.9448032 50.2791314,30.5146083 L50.2791314,30.5146083 C48.6620738,28.1870336 48.1479197,24.9116704 48.7370803,20.6874843 L48.7370803,20.6874843 L40.6372017,20.3787962 C40.615008,20.5629332 40.5942528,20.7483116 40.5741141,20.9351383 L40.5741141,20.9351383 Z M84.2467949,35.9336161 C87.3210333,39.564012 91.1726678,41.3793134 97.0363255,41.3793134 L97.0363255,41.3793134 C102.827854,41.3793134 107.03171,39.5549086 110.880879,35.9065128 L110.880879,35.9065128 C114.207262,32.7536318 116.353064,28.5503421 117.31849,23.2976783 L117.31849,23.2976783 L109.105999,22.9850592 C108.272708,26.6452481 106.82683,29.4174413 104.767748,31.3022596 L104.767748,31.3022596 C102.368362,33.4988695 100.199544,34.5461746 97.0299551,34.3787962 L97.0299551,34.3787962 C93.8607769,34.2116246 92.0472639,32.9448032 90.3582823,30.5146083 L90.3582823,30.5146083 C88.9403514,28.4739977 88.3703021,25.704701 88.6481344,22.2063044 L88.6481344,22.2063044 L80.5636681,21.8986507 C80.1015049,27.8104837 81.3293508,32.4885986 84.2467949,35.9336161 L84.2467949,35.9336161 Z M119.523065,39.6258738 L119.52101,39.6513219 L119.520393,39.6763563 C119.520393,39.9312516 119.72589,40.1379402 119.979679,40.1379402 L119.979679,40.1379402 L126.69389,40.1379402 L126.725948,40.1364919 C126.948296,40.1211817 127.129339,39.946148 127.150916,39.7200112 L127.150916,39.7200112 L128.716394,23.7389865 L121.287875,23.4563672 L119.523065,39.6258738 Z M140.534128,39.8739415 L140.550362,39.9053896 C140.631534,40.0483544 140.783602,40.1379402 140.949027,40.1379402 L140.949027,40.1379402 L149.896171,40.1379402 L149.929256,40.136285 C150.148521,40.1209748 150.328331,39.9498722 150.35258,39.7268388 L150.35258,39.7268388 L152.000873,24.6255339 L144.560641,24.342087 L143.889281,30.9689509 L141.069243,24.2092601 L133.768749,23.9313994 L140.534128,39.8739415 Z" id="Combined-Shape" fill="#FFFFFF"></path>
    </g>
</svg>